name C:\Users\u0101727\Documents\MyRepositories\upper-imu-dc\Results\main_tracking\Case_43\FLX01_linearAccelerations_groundFrame.mot
datacolumns 4
datarows 58
range 0.51000000 1.08000000
endheader 
time	radius_imu_x	radius_imu_y	radius_imu_z	
          0.51000000	         -0.84984571	          9.87977264	         -0.78186068	
          0.52000000	         -0.83720619	          9.88844244	         -0.77347865	
          0.53000000	         -0.83000883	          9.89798694	         -0.74706645	
          0.54000000	         -0.81486519	          9.91274709	         -0.70979203	
          0.55000000	         -0.79281035	          9.93115996	         -0.66247822	
          0.56000000	         -0.76636526	          9.95354743	         -0.60545075	
          0.57000000	         -0.73719237	          9.97987709	         -0.53888222	
          0.58000000	         -0.70687463	         10.01014232	         -0.46342257	
          0.59000000	         -0.67705680	         10.04424199	         -0.38003182	
          0.60000000	         -0.64921335	         10.08208647	         -0.28978951	
          0.61000000	         -0.62453851	         10.12355960	         -0.19398948	
          0.62000000	         -0.60390731	         10.16849988	         -0.09418531	
          0.63000000	         -0.58785507	         10.21669628	          0.00785103	
          0.64000000	         -0.57667541	         10.26785828	          0.11014545	
          0.65000000	         -0.57059181	         10.32159296	          0.21059494	
          0.66000000	         -0.56985988	         10.37741302	          0.30709767	
          0.67000000	         -0.57475084	         10.43476211	          0.39766454	
          0.68000000	         -0.58547032	         10.49305305	          0.48052048	
          0.69000000	         -0.60208831	         10.55170608	          0.55418064	
          0.70000000	         -0.62451676	         10.61016887	          0.61747125	
          0.71000000	         -0.65253793	         10.66791469	          0.66950722	
          0.72000000	         -0.68586622	         10.72443386	          0.70967748	
          0.73000000	         -0.72420262	         10.77923962	          0.73767797	
          0.74000000	         -0.76723874	         10.83192697	          0.75366592	
          0.75000000	         -0.81465619	         10.88220330	          0.75830782	
          0.76000000	         -0.86621750	         10.92978953	          0.75251340	
          0.77000000	         -0.92161078	         10.97459655	          0.73774981	
          0.78000000	         -0.98045000	         11.01669863	          0.71583726	
          0.79000000	         -1.04243747	         11.05615329	          0.68845717	
          0.80000000	         -1.10692475	         11.09358129	          0.65821639	
          0.81000000	         -1.17369111	         11.12918603	          0.62656732	
          0.82000000	         -1.24233243	         11.16359655	          0.59549094	
          0.83000000	         -1.31282956	         11.19702117	          0.56584646	
          0.84000000	         -1.38532649	         11.22945316	          0.53788859	
          0.85000000	         -1.46001577	         11.26066864	          0.51135473	
          0.86000000	         -1.53714526	         11.29010990	          0.48537414	
          0.87000000	         -1.61680402	         11.31713355	          0.45899468	
          0.88000000	         -1.69882665	         11.34119508	          0.43152304	
          0.89000000	         -1.78279391	         11.36193707	          0.40264053	
          0.90000000	         -1.86805903	         11.37923867	          0.37241031	
          0.91000000	         -1.95379918	         11.39322026	          0.34119583	
          0.92000000	         -2.03905175	         11.40426973	          0.30960531	
          0.93000000	         -2.12271498	         11.41313463	          0.27851560	
          0.94000000	         -2.20363404	         11.42090655	          0.24896152	
          0.95000000	         -2.28085979	         11.42873286	          0.22175656	
          0.96000000	         -2.35394436	         11.43739385	          0.19707668	
          0.97000000	         -2.42312829	         11.44688411	          0.17414690	
          0.98000000	         -2.48937541	         11.45602333	          0.15102330	
          0.99000000	         -2.55411869	         11.46246197	          0.12483284	
          1.00000000	         -2.61873534	         11.46325111	          0.09253687	
          1.01000000	         -2.68403521	         11.45553040	          0.05161290	
          1.02000000	         -2.74991607	         11.43714778	          0.00050566	
          1.03000000	         -2.81525161	         11.40716463	         -0.06111531	
          1.04000000	         -2.87821842	         11.36581504	         -0.13255465	
          1.05000000	         -2.93686715	         11.31402151	         -0.21255494	
          1.06000000	         -2.98928289	         11.25308150	         -0.29974158	
          1.07000000	         -3.03372602	         11.18445614	         -0.39283719	
          1.08000000	         -3.06880711	         11.10949424	         -0.49081656	
